<svg viewBox="0 0 31 31" fill="none" xmlns="http://www.w3.org/2000/svg">
<path d="M31 16.1361C29.6621 15.7821 28.2588 15.5929 26.8125 15.5929C18.1973 15.5929 11.126 21.9209 10.2822 30.0984C11.9141 30.682 13.6738 31 15.5068 31C23.8574 31 30.666 24.4016 31 16.1361Z" fill="#FEDA00"/>
<path d="M8.02734 29.0809C8.35547 28.942 8.65137 28.803 8.91504 28.6704C8.31641 28.5875 7.45312 28.4326 6.51074 28.1266C6.99609 28.4727 7.50293 28.7916 8.02734 29.0809Z" fill="#FEDA00"/>
<path d="M2.29395 23.6174C0.838867 21.2566 0 18.4763 0 15.5C0 6.93958 6.94238 0 15.5068 0C20.5674 0 25.0615 2.42297 27.8916 6.17163C25.5371 8.41016 25.4053 11.8542 25.4619 13.4351C24.3135 11.9965 22.625 9.25024 22.2197 5.19617C18.9785 8.20398 20.0586 12.585 20.667 14.4159C19.1133 13.3043 16.8174 11.1465 15.1963 7.354C12.8994 11.0811 15.1963 15.0697 16.2764 16.639C14.5205 15.9851 11.6162 14.5466 9.0498 11.2772C7.90234 15.462 11.2109 18.666 12.6973 19.9084C10.8057 19.7777 7.63184 19.1238 4.25488 16.7045C4.38965 21.02 8.44238 23.2432 10.1982 24.0278C8.55273 24.3818 5.75293 24.6294 2.29395 23.6174Z" fill="#FEDA00"/>
<path d="M29.2871 8.38708C29.9521 9.67224 30.4434 11.0621 30.7275 12.5258C30.5459 13.024 30.416 13.4724 30.3242 13.8274C29.8525 12.6396 29.3145 10.7816 29.2871 8.38708Z" fill="#FEDA00"/>
</svg>
