<svg viewBox="0 0 140 43" fill="none" xmlns="http://www.w3.org/2000/svg">
<g clip-path="url(#clip0)">
<path d="M44.3642 27.5587L41.3672 41.7732H44.7814L46.2998 34.6275C46.6043 33.112 47.084 32.0001 47.7389 31.292C48.0674 30.9406 48.4713 30.6635 48.9221 30.4804C49.3729 30.2973 49.8596 30.2126 50.3477 30.2323C51.1012 30.2323 51.6751 30.4281 52.0694 30.8199C52.4637 31.2116 52.6609 31.782 52.6609 32.5312C52.6605 32.8159 52.6428 33.1004 52.6081 33.3831C52.5711 33.6773 52.5218 33.9706 52.4602 34.2631L50.9551 41.7706H54.504L55.7952 35.31C55.9572 34.5334 56.0804 33.8492 56.1649 33.2573C56.2355 32.8233 56.2779 32.3854 56.2917 31.9462C56.2917 30.4068 55.841 29.2522 54.9397 28.4824C54.0384 27.7127 52.6978 27.327 50.9181 27.3253C50.2275 27.322 49.5436 27.4564 48.9086 27.7204C48.2392 28.0076 47.6303 28.413 47.1131 28.916L47.422 27.5587H44.3642Z" fill="black"/>
<path d="M71.3507 41.7729L75.1135 22.958H71.6464L70.3816 29.393C69.7756 28.7095 69.023 28.163 68.1767 27.7919C67.315 27.4239 66.3824 27.2384 65.4411 27.248C64.1995 27.2356 62.9722 27.5062 61.8578 28.0383C60.7683 28.5658 59.8275 29.3434 59.1169 30.3039C58.5828 31.0126 58.1634 31.7965 57.8732 32.6285C57.5982 33.4415 57.46 34.2923 57.4639 35.1481C57.4639 37.2332 58.1003 38.9198 59.3731 40.2078C60.6458 41.4958 62.3041 42.1398 64.3479 42.1398C65.0617 42.149 65.7715 42.0352 66.4445 41.8037C67.0774 41.5746 67.6571 41.2257 68.1503 40.7774L67.9628 41.7601L71.3507 41.7729ZM68.3457 31.3302C68.7075 31.6999 68.9897 32.1362 69.1756 32.6134C69.3615 33.0906 69.4474 33.599 69.4283 34.1089C69.4653 35.4092 68.9805 36.6725 68.0764 37.6317C67.6652 38.0877 67.1572 38.4515 66.5874 38.6982C66.0176 38.945 65.3995 39.0687 64.7757 39.0609C64.2544 39.0819 63.7344 38.9961 63.2495 38.8091C62.7645 38.6221 62.3255 38.3381 61.9608 37.9756C61.2567 37.252 60.9046 36.3001 60.9046 35.1198C60.8864 34.4841 60.9979 33.8513 61.2327 33.2576C61.4675 32.664 61.8208 32.1214 62.2724 31.6612C62.691 31.2088 63.2034 30.8479 63.776 30.602C64.3486 30.3561 64.9683 30.2309 65.5942 30.2346C66.1063 30.2191 66.616 30.3087 67.0901 30.4975C67.5642 30.6863 67.992 30.97 68.3457 31.3302Z" fill="black"/>
<path d="M79.4839 31.0331C80.2251 30.5478 81.0986 30.2885 81.9924 30.2885C82.8862 30.2885 83.7597 30.5478 84.5009 31.0331C85.2052 31.5461 85.7045 32.2806 85.9136 33.1114H77.8784C78.187 32.28 78.7465 31.5583 79.4839 31.0408V31.0331ZM84.9208 37.3244C84.4919 37.8693 83.9435 38.3146 83.3153 38.6278C82.6935 38.9204 82.0099 39.068 81.3191 39.0589C80.4084 39.0981 79.5143 38.8125 78.8052 38.2558C78.1592 37.7204 77.7288 36.9335 77.514 35.8953H89.2064C89.2698 35.5232 89.3147 35.1871 89.3411 34.8689C89.3675 34.5508 89.3807 34.2839 89.3807 34.0351C89.3807 32.0252 88.7135 30.384 87.3791 29.1113C86.0448 27.8387 84.324 27.2024 82.2169 27.2024C81.2368 27.1951 80.2633 27.3567 79.3413 27.6796C78.4556 27.9925 77.6393 28.4662 76.9357 29.0754C76.0277 29.8601 75.2998 30.8217 74.7995 31.8978C74.2986 32.9666 74.0419 34.1281 74.0469 35.3026C74.0469 37.3005 74.715 38.9434 76.0511 40.2314C77.3873 41.5195 79.0939 42.1635 81.1712 42.1635C82.801 42.1984 84.4041 41.7578 85.7737 40.8985C87.1093 40.0211 88.1367 38.7677 88.7179 37.3064L84.9208 37.3244Z" fill="black"/>
<path d="M93.0345 41.774L94.5 34.5898C94.8221 33.0384 95.3555 31.9676 96.1002 31.3774C96.8448 30.7873 98.0102 30.4794 99.5963 30.4538L100.254 27.1182H100.146C99.1464 27.0941 98.1543 27.286 97.2409 27.6801C96.3827 28.0859 95.6381 28.6871 95.0704 29.4326L95.4612 27.5467H92.3215L89.4697 41.774H93.0345Z" fill="black"/>
<path d="M98.8364 37.3558C98.8364 37.4687 98.8232 37.5456 98.8232 37.5893C98.8232 39.0022 99.2845 40.114 100.207 40.9248C101.129 41.7356 102.392 42.1435 103.993 42.1487C104.672 42.1713 105.348 42.0625 105.983 41.8286C106.618 41.5947 107.198 41.2403 107.69 40.7862C108.167 40.3508 108.544 39.8225 108.797 39.2358C109.049 38.6491 109.172 38.0172 109.156 37.3814C109.168 36.6248 108.925 35.8851 108.464 35.2749C108.003 34.6626 107.189 34.0074 106.024 33.3095L105.567 33.0376C104.411 32.3534 103.832 31.7632 103.832 31.2672C103.832 31.1109 103.866 30.9563 103.934 30.8144C104.001 30.6726 104.1 30.5468 104.223 30.4461C104.48 30.2187 104.816 30.0956 105.163 30.1023C105.341 30.0931 105.519 30.1253 105.681 30.1963C105.844 30.2672 105.987 30.3749 106.098 30.5103C106.343 30.8625 106.468 31.2809 106.454 31.7059H109.951V31.4853C109.974 30.9129 109.872 30.3424 109.65 29.8115C109.429 29.2806 109.094 28.8016 108.667 28.4063C107.812 27.6229 106.698 27.2312 105.327 27.2312C104.001 27.1889 102.709 27.6489 101.725 28.5141C101.263 28.9123 100.895 29.4031 100.646 29.9528C100.398 30.5025 100.275 31.098 100.286 31.6982C100.282 32.145 100.366 32.5883 100.534 33.0042C100.723 33.4478 100.991 33.8553 101.326 34.2076C101.822 34.6329 102.363 35.0054 102.94 35.3185C103.424 35.6025 103.805 35.8351 104.083 36.0164C104.496 36.2486 104.867 36.5431 105.184 36.8888C105.393 37.1343 105.507 37.4428 105.507 37.7612C105.511 37.9404 105.477 38.1187 105.407 38.2844C105.336 38.4501 105.231 38.5997 105.097 38.7233C104.958 38.8505 104.794 38.9495 104.615 39.0146C104.436 39.0798 104.245 39.1099 104.054 39.1031C103.818 39.1151 103.583 39.0753 103.365 38.9864C103.148 38.8975 102.953 38.762 102.797 38.5899C102.472 38.1781 102.312 37.6658 102.346 37.148V37.071H98.8496C98.8496 37.13 98.8496 37.2172 98.8364 37.3276" fill="black"/>
<path d="M115.763 31.0333C116.504 30.5479 117.378 30.2886 118.271 30.2886C119.165 30.2886 120.039 30.5479 120.78 31.0333C121.484 31.5463 121.983 32.2808 122.193 33.1115H114.157C114.466 32.2802 115.026 31.5586 115.763 31.041V31.0333ZM121.2 37.3246C120.771 37.8695 120.222 38.3148 119.594 38.628C118.972 38.9205 118.289 39.0681 117.598 39.059C116.687 39.0985 115.793 38.8129 115.084 38.2559C114.438 37.7206 114.008 36.9337 113.793 35.8954H125.488C125.551 35.5234 125.596 35.1873 125.623 34.8691C125.649 34.5509 125.662 34.2841 125.662 34.0352C125.662 32.0254 124.995 30.3841 123.661 29.1115C122.326 27.8389 120.606 27.2025 118.498 27.2025C117.515 27.1931 116.538 27.3539 115.612 27.6772C114.727 27.9901 113.91 28.4638 113.207 29.073C112.299 29.8575 111.571 30.8192 111.071 31.8954C110.576 32.9612 110.324 34.1182 110.331 35.2873C110.331 37.2852 110.999 38.9282 112.335 40.2162C113.672 41.5042 115.379 42.1482 117.458 42.1482C119.084 42.1867 120.685 41.7515 122.055 40.8987C123.391 40.0214 124.418 38.7679 125 37.3066L121.2 37.3246Z" fill="black"/>
<path d="M128.077 27.559L125.08 41.7734H128.494L130.013 34.6277C130.317 33.1122 130.797 32.0004 131.452 31.2922C131.78 30.9408 132.184 30.6638 132.635 30.4807C133.086 30.2976 133.572 30.2129 134.061 30.2325C134.814 30.2325 135.388 30.4284 135.782 30.8201C136.177 31.2118 136.374 31.7823 136.374 32.5315C136.373 32.8162 136.356 33.1006 136.321 33.3833C136.286 33.6775 136.236 33.9709 136.173 34.2634L134.668 41.7709H138.217L139.508 35.3102C139.67 34.5337 139.793 33.8494 139.878 33.2576C139.948 32.8236 139.991 32.3857 140.005 31.9465C140.005 30.407 139.554 29.2524 138.653 28.4827C137.751 27.7129 136.413 27.3255 134.639 27.3204C133.948 27.3171 133.264 27.4516 132.629 27.7155C131.961 28.0031 131.353 28.4085 130.836 28.9112L131.145 27.5539L128.077 27.559Z" fill="black"/>
<path d="M48.8768 16.9085C49.3046 14.6173 50.5377 10.8045 54.0867 6.94045C48.4834 6.49144 45.1087 11.2304 43.9178 13.2959C43.6828 10.9867 43.7911 6.97124 46.128 2.30664C40.6171 3.38684 38.708 8.84939 38.1429 11.1586C37.2715 9.00847 36.247 5.11361 37.187 0C32.1937 2.52473 31.9059 8.29005 32.0036 10.6634C30.5513 8.82117 28.4706 5.36762 27.9266 0.200131C23.8364 3.9744 25.1778 9.5986 25.9462 11.8488C24.0318 10.471 21.0585 7.71019 19.0807 2.88908C16.2131 7.62038 19.0807 12.6647 20.4591 14.6198C18.2225 13.8116 14.5891 11.9591 11.3307 7.859C9.90739 13.1804 14.0874 17.2549 15.9596 18.7585C13.5831 18.584 9.57468 17.7835 5.28641 14.7199C5.41579 20.2184 10.5807 23.0074 12.8041 23.9567C10.4751 24.4288 6.3928 24.7393 1.40742 22.9535C3.08154 28.2057 8.83004 29.4911 11.2356 29.8016C9.12315 30.8818 5.29433 32.2853 0 31.9132C3.08682 36.5086 8.97791 36.1955 11.3755 35.844C9.65654 37.4502 6.35848 39.8364 1.16977 40.9063C6.60669 45.4786 14.2115 41.1218 14.2115 41.1218V41.0988L14.2934 41.2424C13.3388 38.8581 12.8507 36.3216 12.8543 33.7632C12.8543 22.4583 22.2177 13.2933 33.7702 13.2933C41.3512 13.2933 47.9896 17.4499 51.6573 23.5L51.792 23.7233C51.792 23.7233 53.3341 17.8707 60.4557 13.5371C55.1957 11.5948 50.6196 15.2382 48.89 16.9008" fill="#FCD700"/>
<path d="M25.6713 41.5171L27.9448 37.5504H35.9827L36.8699 41.5171H40.7806L36.5319 22.7021H32.4337L21.4648 41.5171H25.6713ZM29.9463 34.0481L33.754 27.3283L35.2459 34.0481H29.9463Z" fill="black"/>
</g>
<defs>
<clipPath id="clip0">
<rect width="140" height="43" fill="white"/>
</clipPath>
</defs>
</svg>
