<svg width="24" height="24" viewBox="0 0 24 24" fill="none" xmlns="http://www.w3.org/2000/svg">
<g id="icon/image/tune_24px">
<path id="icon/image/tune_24px_2" fill-rule="evenodd" clip-rule="evenodd" d="M8 7C8.55 7 9 7.45 9 8C9 8.55 8.55 9 8 9L4 9C3.45 9 3 8.55 3 8C3 7.45 3.45 7 4 7L5 7L5 4C5 3.45 5.45 3 6 3C6.55 3 7 3.45 7 4L7 7L8 7ZM7 20C7 20.55 6.55 21 6 21C5.45 21 5 20.55 5 20L5 11L7 11L7 20ZM19 20C19 20.55 18.55 21 18 21C17.45 21 17 20.55 17 20L17 15L19 15L19 20ZM20 11L19 11L19 4C19 3.45 18.55 3 18 3C17.45 3 17 3.45 17 4L17 11L16 11C15.45 11 15 11.45 15 12C15 12.55 15.45 13 16 13L20 13C20.55 13 21 12.55 21 12C21 11.45 20.55 11 20 11ZM11 17L10 17C9.45 17 9 16.55 9 16C9 15.45 9.45 15 10 15L14 15C14.55 15 15 15.45 15 16C15 16.55 14.55 17 14 17L13 17L13 20C13 20.55 12.55 21 12 21C11.45 21 11 20.55 11 20L11 17ZM12 3C11.45 3 11 3.45 11 4L11 13L13 13L13 4C13 3.45 12.55 3 12 3Z" fill="#69738F"/>
</g>
</svg>
