<svg width="24" height="24" viewBox="0 0 24 24" fill="none" xmlns="http://www.w3.org/2000/svg">
<path d="M20 12.3283C19.3095 12.1456 18.5852 12.0479 17.8387 12.0479C13.3921 12.0479 9.74244 15.314 9.30696 19.5347C10.1492 19.8359 11.0575 20 12.0035 20C16.3135 20 19.8276 16.5944 20 12.3283Z" fill="#FEDA00"/>
<path d="M8.14315 19.0095C8.3125 18.9378 8.46522 18.8661 8.60131 18.7976C8.29234 18.7549 7.84677 18.6749 7.36038 18.5169C7.61089 18.6956 7.87248 18.8602 8.14315 19.0095Z" fill="#FEDA00"/>
<path d="M5.18397 16.1896C4.43296 14.9711 4 13.5362 4 12C4 7.58172 7.58317 4 12.0035 4C14.6154 4 16.935 5.25057 18.3957 7.18536C17.1804 8.34073 17.1124 10.1183 17.1416 10.9342C16.5489 10.1917 15.6774 8.77432 15.4682 6.68189C13.7954 8.23431 14.3528 10.4955 14.6668 11.4405C13.8649 10.8667 12.6799 9.75302 11.8432 7.79561C10.6578 9.71925 11.8432 11.7779 12.4007 12.5879C11.4945 12.2504 9.99546 11.5079 8.67087 9.8205C8.07863 11.9804 9.78629 13.6341 10.5534 14.2753C9.57712 14.2079 7.93901 13.8703 6.19607 12.6217C6.26562 14.849 8.35736 15.9965 9.26361 16.4015C8.41431 16.5842 6.96925 16.7119 5.18397 16.1896Z" fill="#FEDA00"/>
<path d="M19.1159 8.32882C19.4592 8.99212 19.7127 9.70949 19.8594 10.4649C19.7656 10.7221 19.6986 10.9535 19.6512 11.1367C19.4078 10.5237 19.13 9.5647 19.1159 8.32882Z" fill="#FEDA00"/>
</svg>
