<svg width="24" height="24" viewBox="0 0 24 24" fill="none" xmlns="http://www.w3.org/2000/svg">
<rect x="4" y="4" width="16" height="16" rx="1.5" fill="black"/>
<path d="M15.3562 10.9745C15.9498 11.0637 16.3607 11.3312 16.589 11.6879C16.8174 12.0446 16.9543 12.6688 16.9543 13.4713C16.9543 15.0764 16.4521 16.414 15.4475 17.4395C14.4429 18.465 13.1644 19 11.6119 19C11.0183 19 10.4247 18.9108 9.83105 18.6879C9.23744 18.465 8.78082 18.1529 8.36986 17.7962C7.91324 17.3949 7.54795 16.9045 7.31963 16.4586C7.13699 15.9682 7 15.4777 7 14.9873C7 14.4522 7.13699 14.0064 7.3653 13.6943C7.59361 13.3822 8.00457 13.2038 8.50685 13.0701C8.41553 12.8471 8.3242 12.6688 8.27854 12.4904C8.23288 12.3567 8.18721 12.2229 8.18721 12.1338C8.18721 11.8662 8.3242 11.5541 8.64384 11.242C8.96347 10.9299 9.23744 10.7962 9.51142 10.7962C9.6484 10.7962 9.73973 10.7962 9.87671 10.8408C10.0137 10.8854 10.1507 10.9299 10.3333 11.0637C9.92237 9.72611 9.51142 8.61146 9.28311 7.8535C9.05479 7.09554 8.96347 6.6051 8.96347 6.29299C8.96347 5.89172 9.05479 5.57962 9.28311 5.35669C9.46575 5.13376 9.78539 5 10.1507 5C10.7443 5 11.5205 6.33758 12.4795 9.05732C12.6621 9.50318 12.7534 9.85987 12.8447 10.1274C12.9361 9.94904 13.0274 9.63694 13.1644 9.28025C14.1233 6.6051 14.9452 5.26752 15.5845 5.26752C15.9041 5.26752 16.1781 5.35669 16.4064 5.57962C16.589 5.80255 16.726 6.11465 16.726 6.47134C16.726 6.73885 16.6347 7.27389 16.4064 8.03185C16.1324 8.78981 15.8128 9.7707 15.3562 10.9745ZM8.3242 14.8981C8.41553 14.9873 8.55251 15.1656 8.6895 15.3885C9.10046 15.9682 9.51142 16.2803 9.87671 16.2803C10.0137 16.2803 10.105 16.2357 10.1963 16.1465C10.2877 16.0573 10.3333 15.9682 10.3333 15.9236C10.3333 15.8344 10.2877 15.6561 10.1507 15.4331C10.0137 15.2102 9.83105 14.9427 9.60274 14.6752C9.32877 14.3631 9.10046 14.0955 8.96347 13.9618C8.78082 13.828 8.64384 13.7389 8.55251 13.7389C8.3242 13.7389 8.09589 13.8726 7.91324 14.0955C7.73059 14.3185 7.63927 14.6306 7.63927 14.9427C7.63927 15.2102 7.68493 15.4777 7.82192 15.8344C7.9589 16.1465 8.14155 16.5032 8.41553 16.8153C8.82648 17.2611 9.28311 17.6624 9.87671 17.9299C10.4703 18.1975 11.0639 18.3312 11.7945 18.3312C13.0731 18.3312 14.1233 17.8854 14.9909 16.949C15.8584 16.0127 16.2694 14.8535 16.2694 13.4268C16.2694 12.9809 16.2237 12.6688 16.1781 12.4013C16.1324 12.1338 15.9954 11.9554 15.8584 11.8662C15.5845 11.6433 15.0822 11.465 14.3059 11.2866C13.5297 11.1083 12.7078 11.0191 11.8858 11.0191C11.6575 11.0191 11.4749 11.0637 11.3836 11.1529C11.2922 11.242 11.2466 11.3758 11.2466 11.5541C11.2466 12 11.4749 12.3121 11.9772 12.4904C12.4795 12.6688 13.3014 12.8025 14.3973 12.8025H14.8082C14.8995 12.8025 14.9909 12.8471 15.0365 12.8917C15.0822 12.9809 15.1279 13.0701 15.1279 13.2038C15.0365 13.293 14.8082 13.4268 14.4429 13.5605C14.0776 13.6943 13.8493 13.828 13.6667 13.9618C13.2557 14.2293 12.9361 14.586 12.7078 14.9873C12.4795 15.3885 12.3425 15.7452 12.3425 16.1019C12.3425 16.3248 12.3881 16.5478 12.4795 16.8599C12.5708 17.172 12.6164 17.3503 12.6164 17.3949V17.4841V17.5732C12.3425 17.5732 12.1142 17.3949 11.9315 17.0828C11.7489 16.7707 11.7032 16.3694 11.7032 15.8344V15.7452C11.6575 15.7898 11.6119 15.8344 11.5662 15.8344C11.5205 15.8344 11.4749 15.879 11.3836 15.879C11.3379 15.879 11.2466 15.879 11.2009 15.879C11.1553 15.879 11.1096 15.8344 11.0183 15.8344C11.0183 15.9236 11.0639 15.9682 11.0639 16.0573C11.0639 16.1465 11.0639 16.1911 11.0639 16.2357C11.0639 16.4586 10.9726 16.6815 10.79 16.8599C10.6073 17.0382 10.379 17.1274 10.105 17.1274C9.69406 17.1274 9.28311 16.949 8.82648 16.5478C8.41553 16.1465 8.18721 15.7898 8.18721 15.3885C8.18721 15.2994 8.18721 15.2548 8.23288 15.2102C8.23288 14.9873 8.27854 14.9427 8.3242 14.8981ZM11.2922 15.121C11.3836 15.121 11.5205 15.0764 11.6119 14.9873C11.7032 14.8981 11.7489 14.7643 11.7489 14.6752C11.7489 14.5414 11.6575 14.2739 11.4749 13.828C11.2922 13.3822 11.0639 12.9363 10.79 12.535C10.6073 12.2229 10.379 11.9554 10.1963 11.8217C10.0137 11.6433 9.83105 11.5987 9.6484 11.5987C9.51142 11.5987 9.37443 11.6879 9.19178 11.8662C9.00913 12.0446 8.96347 12.1783 8.96347 12.3567C8.96347 12.4904 9.0548 12.758 9.19178 13.0701C9.37443 13.3822 9.55708 13.6943 9.83105 14.051C10.105 14.4076 10.379 14.7197 10.653 14.9427C10.9269 15.0318 11.1096 15.121 11.2922 15.121ZM12.2511 10.4841L11.1553 7.49682C10.8813 6.73885 10.6986 6.20382 10.516 5.98089C10.379 5.75796 10.242 5.6242 10.0594 5.6242C9.92237 5.6242 9.83105 5.66879 9.73973 5.75796C9.60274 5.89172 9.55708 6.02548 9.55708 6.20382C9.55708 6.51592 9.69406 7.00637 9.92237 7.71975C10.1507 8.43312 10.516 9.41401 10.9726 10.5732C11.0183 10.4841 11.0639 10.4395 11.1553 10.4395C11.2466 10.3949 11.3379 10.3949 11.4292 10.3949C11.4749 10.3949 11.5662 10.3949 11.6575 10.3949C11.7945 10.4395 11.9772 10.4395 12.2511 10.4841ZM13.347 13.3822C13.0731 13.3822 12.7991 13.3376 12.5251 13.293C12.2511 13.2484 12.0228 13.2038 11.7945 13.1146C11.8858 13.3376 11.9772 13.5159 12.0685 13.7389C12.1598 13.9618 12.2055 14.1401 12.2511 14.3631C12.3881 14.1847 12.5708 14.0064 12.7534 13.828C12.9817 13.6497 13.1644 13.5159 13.347 13.3822ZM14.6712 10.7962C15.1279 9.63694 15.4475 8.65605 15.7215 7.89809C15.9498 7.14013 16.0868 6.69427 16.0868 6.51592C16.0868 6.33758 16.0411 6.20382 15.9498 6.07006C15.8584 5.98089 15.7671 5.93631 15.6301 5.93631C15.4475 5.93631 15.2648 6.07006 15.0822 6.38217C14.8995 6.69427 14.6712 7.14013 14.4429 7.80892L13.4384 10.5732L14.6712 10.7962Z" fill="white"/>
</svg>
