<svg width="24" height="24" viewBox="0 0 24 24" fill="none" xmlns="http://www.w3.org/2000/svg">
    <path opacity="0.5" fill-rule="evenodd" clip-rule="evenodd" d="M17.3333 5.6H18.2222C19.2 5.6 20 6.32 20 7.2V18.4C20 19.28 19.2 20 18.2222 20H5.77778C4.79111 20 4 19.28 4 18.4V7.2C4 6.32 4.79111 5.6 5.77778 5.6H6.66667V4.8C6.66667 4.36 7.06667 4 7.55556 4C8.04444 4 8.44444 4.36 8.44444 4.8V5.6H15.5556V4.8C15.5556 4.36 15.9556 4 16.4444 4C16.9333 4 17.3333 4.36 17.3333 4.8V5.6ZM8.44404 11.2004H15.5551C16.044 11.2004 16.444 11.5604 16.444 12.0004C16.444 12.4404 16.044 12.8004 15.5551 12.8004H8.44404C7.95515 12.8004 7.55515 12.4404 7.55515 12.0004C7.55515 11.5604 7.95515 11.2004 8.44404 11.2004ZM17.3336 18.4006H6.66692C6.17803 18.4006 5.77803 18.0406 5.77803 17.6006V9.60064H18.2225V17.6006C18.2225 18.0406 17.8225 18.4006 17.3336 18.4006ZM8.44404 14.3994H12.8885C13.3774 14.3994 13.7774 14.7594 13.7774 15.1994C13.7774 15.6394 13.3774 15.9994 12.8885 15.9994H8.44404C7.95515 15.9994 7.55515 15.6394 7.55515 15.1994C7.55515 14.7594 7.95515 14.3994 8.44404 14.3994Z" fill="#69738F"/>
</svg>
