<svg width="24" height="24" viewBox="0 0 24 24" fill="none" xmlns="http://www.w3.org/2000/svg">
<path opacity="0.5" d="M15.8225 8.18353C15.7092 8.06992 15.5553 8.00607 15.3948 8.00607C15.2343 8.00607 15.0804 8.06992 14.967 8.18353L12 11.1445L9.03299 8.17747C8.91963 8.06385 8.76573 8 8.60523 8C8.44474 8 8.29083 8.06385 8.17747 8.17747C7.94084 8.4141 7.94084 8.79635 8.17747 9.03298L11.1445 12L8.17747 14.967C7.94084 15.2036 7.94084 15.5859 8.17747 15.8225C8.41411 16.0592 8.79636 16.0592 9.03299 15.8225L12 12.8555L14.967 15.8225C15.2036 16.0592 15.5859 16.0592 15.8225 15.8225C16.0592 15.5859 16.0592 15.2036 15.8225 14.967L12.8555 12L15.8225 9.03298C16.0531 8.80242 16.0531 8.4141 15.8225 8.18353Z" fill="#69738F"/>
</svg>
