<svg width="24" height="24" viewBox="0 0 24 24" fill="none" xmlns="http://www.w3.org/2000/svg">
<rect opacity="0.5" y="7" width="23" height="11" rx="4" fill="#69738F"/>
<path d="M15.5 12.041H8.53297L10.7252 9.78994C10.9004 9.61004 10.9004 9.31482 10.7252 9.13492C10.6412 9.04854 10.5273 9 10.4085 9C10.2896 9 10.1757 9.04854 10.0918 9.13492L7.1314 12.1748C6.9562 12.3547 6.9562 12.6453 7.1314 12.8252L10.0918 15.8651C10.267 16.045 10.55 16.045 10.7252 15.8651C10.9004 15.6852 10.9004 15.3946 10.7252 15.2147L8.53297 12.9636H15.5C15.7471 12.9636 15.9492 12.756 15.9492 12.5023C15.9492 12.2486 15.7471 12.041 15.5 12.041Z" fill="white"/>
</svg>
