<svg width="33" height="32" viewBox="0 0 33 32" fill="none" xmlns="http://www.w3.org/2000/svg">
<path d="M15.7157 20.311C15.1424 20.2727 14.4815 20.1723 13.9602 20.0213C13.8625 19.993 13.4582 19.8444 13.3553 19.7972C11.5404 18.9565 10.276 17.1212 10.276 14.9921C10.276 12.0718 12.6519 9.69304 15.5741 9.69304C18.4704 9.69304 20.8302 12.0312 20.8708 14.9185H22.7848C22.7443 10.9763 19.5262 7.78138 15.5741 7.78138C11.5984 7.78138 8.36247 11.0154 8.36247 14.9921C8.36247 17.7336 9.90425 20.118 12.1617 21.3361C12.5693 21.5517 13.1544 21.7739 13.353 21.8348C13.9965 22.0264 14.7862 22.1537 15.4892 22.207C15.7279 22.225 16.5616 22.2344 16.8045 22.2354H29.9852V20.3289H16.8267C16.6517 20.3289 15.8869 20.3223 15.7157 20.311ZM16.8267 17.3175C16.6875 17.3175 15.9596 17.3128 15.8251 17.3015C15.5972 17.2821 15.267 17.2481 15.0547 17.1996C14.815 17.1354 14.59 17.0505 14.4886 16.9948C13.7776 16.6103 13.2931 15.8583 13.2931 14.9921C13.2931 13.732 14.3135 12.7101 15.5741 12.7101C16.8083 12.7101 17.8118 13.6919 17.8519 14.9185H19.6909C19.6522 12.6775 17.8255 10.8715 15.5741 10.8715C13.2978 10.8715 11.4526 12.7162 11.4526 14.9921C11.4526 16.5971 12.3726 17.9832 13.7125 18.6621C13.9186 18.7829 14.3064 18.9093 14.4168 18.9381C14.7952 19.0376 15.3033 19.1056 15.7157 19.1357C15.868 19.1485 16.6144 19.1541 16.772 19.1551V19.1579H29.9847V17.3175H16.8267ZM7.18301 22.2283H5.25626V9.69728H2.44066V7.77005H7.18301V22.2283ZM0.325195 10.6602V12.5133H2.44066V22.2283H4.29194V10.6602H0.325195Z" fill="#D91920"/>
<g filter="url(#filter0_d)">
<circle cx="24.3249" cy="18.6667" r="6.93333" fill="#FEDA00"/>
</g>
<path d="M25.2094 16.5921V14.7051L28.4199 18.0073L25.2094 21.3096V19.3754C22.9161 19.3754 21.3109 20.1302 20.1642 21.7814C20.6229 19.4226 21.9988 17.0638 25.2094 16.5921Z" fill="white"/>
<defs>
<filter id="filter0_d" x="16.3916" y="10.7334" width="15.8667" height="15.8667" filterUnits="userSpaceOnUse" color-interpolation-filters="sRGB">
<feFlood flood-opacity="0" result="BackgroundImageFix"/>
<feColorMatrix in="SourceAlpha" type="matrix" values="0 0 0 0 0 0 0 0 0 0 0 0 0 0 0 0 0 0 127 0"/>
<feOffset/>
<feGaussianBlur stdDeviation="0.5"/>
<feColorMatrix type="matrix" values="0 0 0 0 0 0 0 0 0 0 0 0 0 0 0 0 0 0 0.5 0"/>
<feBlend mode="normal" in2="BackgroundImageFix" result="effect1_dropShadow"/>
<feBlend mode="normal" in="SourceGraphic" in2="effect1_dropShadow" result="shape"/>
</filter>
</defs>
</svg>
