<svg width="68" height="82" viewBox="0 0 68 82" fill="none" xmlns="http://www.w3.org/2000/svg">
<path opacity="0.5" fill-rule="evenodd" clip-rule="evenodd" d="M43.665 61.766H24.3316C21.6733 61.766 19.4983 59.591 19.4983 56.9327V32.766H11.8133C7.51162 32.766 5.38495 27.546 8.42995 24.501L30.615 2.31602C31.518 1.41097 32.7439 0.902344 34.0225 0.902344C35.301 0.902344 36.5269 1.41097 37.43 2.31602L59.615 24.501C62.66 27.546 60.485 32.766 56.1833 32.766H48.4983V56.9327C48.4983 59.591 46.3233 61.766 43.665 61.766ZM63 71.4338H4.99996C2.34163 71.4338 0.166626 73.6088 0.166626 76.2671C0.166626 78.9255 2.34163 81.1005 4.99996 81.1005H63C65.6583 81.1005 67.8333 78.9255 67.8333 76.2671C67.8333 73.6088 65.6583 71.4338 63 71.4338Z" fill="#69738F"/>
</svg>
