<svg width="24" height="24" viewBox="0 0 24 24" fill="none" xmlns="http://www.w3.org/2000/svg">
<rect x="4" y="4" width="16" height="16" rx="1.5" fill="#00AFF0"/>
<path fill-rule="evenodd" clip-rule="evenodd" d="M7.33366 7.33301H16.667C17.3087 7.33301 17.8337 7.85801 17.8337 8.49967V15.4997C17.8337 16.1413 17.3087 16.6663 16.667 16.6663H7.33366C6.69199 16.6663 6.16699 16.1413 6.16699 15.4997L6.17283 8.49967C6.17283 7.85801 6.69199 7.33301 7.33366 7.33301ZM12.3095 12.3905L16.4337 9.81215C16.5795 9.71881 16.667 9.56131 16.667 9.39215C16.667 9.00131 16.2412 8.76798 15.9087 8.97215L12.0003 11.4163L8.09199 8.97215C7.75949 8.76798 7.33366 9.00131 7.33366 9.39215C7.33366 9.56131 7.42116 9.71881 7.56699 9.81215L11.6912 12.3905C11.8778 12.5071 12.1228 12.5071 12.3095 12.3905Z" fill="white"/>
</svg>
