<svg width="24" height="24" viewBox="0 0 24 24" fill="none" xmlns="http://www.w3.org/2000/svg">
<path opacity="0.5" d="M19.2727 7.75001H6.48308L8.87788 5.28032C9.16191 4.98747 9.16191 4.51257 8.87788 4.21967C8.59391 3.92678 8.1334 3.92678 7.84938 4.21967L4.21302 7.96966C3.92899 8.26251 3.92899 8.73741 4.21302 9.03031L7.84938 12.7803C7.99139 12.9267 8.17752 13 8.36365 13C8.54979 13 8.73592 12.9267 8.87788 12.7803C9.16191 12.4875 9.16191 12.0126 8.87788 11.7197L6.48308 9.25001H19.2727C19.6744 9.25001 20 8.91421 20 8.50001C20 8.08581 19.6744 7.75001 19.2727 7.75001Z" fill="#69738F"/>
<path opacity="0.5" d="M16.1506 11.2196C15.8666 10.9268 15.4061 10.9268 15.1221 11.2196C14.8381 11.5125 14.8381 11.9874 15.1221 12.2803L17.517 14.75H4.72727C4.32562 14.75 4 15.0858 4 15.5C4 15.9142 4.32562 16.25 4.72727 16.25H17.517L15.1222 18.7197C14.8381 19.0125 14.8381 19.4874 15.1222 19.7803C15.2641 19.9267 15.4502 20 15.6364 20C15.8225 20 16.0086 19.9267 16.1506 19.7803L19.787 16.0303C20.071 15.7374 20.071 15.2625 19.787 14.9696L16.1506 11.2196Z" fill="#69738F"/>
</svg>
