<svg width="12" height="16" viewBox="0 0 12 16" fill="none" xmlns="http://www.w3.org/2000/svg">
<path d="M10.6863 11.6973L7.8227 10.4299C7.734 10.3845 7.63983 10.2688 7.55348 10.1333L9.55435 10.132C9.55435 10.132 9.66391 10.1429 9.83348 10.1429C10.1463 10.1429 10.6023 10.1067 10.9977 9.93307C11.2289 9.83147 11.401 9.6304 11.4702 9.3816C11.5398 9.1304 11.496 8.86427 11.3497 8.6512C10.799 7.85013 9.51391 5.7568 9.47374 3.63147C9.47296 3.5952 9.35791 0.0288 5.91365 0C3.89583 0.0168 2.93948 1.2312 2.49261 2.24667C2.2753 2.74053 2.14774 3.3176 2.10313 4.00987C1.97191 6.04053 0.934696 7.98213 0.494609 8.72293C0.378783 8.9176 0.343304 9.15653 0.397044 9.3784C0.450261 9.59707 0.582261 9.78053 0.769304 9.89493C1.10296 10.0987 1.47287 10.1416 1.72461 10.1416C1.80913 10.1416 1.87122 10.1363 1.90017 10.1336H3.82122C3.70565 10.2232 3.65922 10.2515 3.64226 10.2613L1.22635 11.6915C0.469826 12.1131 0 12.9221 0 13.8032V14.4C0 15.6656 3.92478 16 6 16C8.07522 16 12 15.6656 12 14.4V13.8552C12 12.9384 11.5015 12.1139 10.6863 11.6973Z" fill="#69738F"/>
</svg>
