<svg width="24" height="24" viewBox="0 0 24 24" fill="none" xmlns="http://www.w3.org/2000/svg">
<path fill-rule="evenodd" clip-rule="evenodd" d="M6.75844 5.85812C9.23916 2.64323 11.5448 1.33459 11.6419 1.2806C11.87 1.15391 12.1506 1.17853 12.3511 1.34318C12.5532 1.50783 12.6354 1.77938 12.559 2.02902C11.0813 6.8984 12.0286 9.81343 13.4076 10.9189C14.0913 11.4663 14.8965 11.586 15.5086 11.2289C16.7757 10.4912 16.1647 8.34066 16.1594 8.32035C16.0793 8.05306 16.1811 7.7639 16.4097 7.60673C16.6383 7.4485 16.9423 7.45809 17.1608 7.63076C18.7504 8.88325 20.4769 11.6908 20.1104 15.4814C19.6999 19.7227 16.2687 22.8002 11.9506 22.8002C7.49412 22.8002 4.00984 19.2988 3.84754 14.6561C3.7404 11.601 4.80124 8.39465 6.75844 5.85812Z" fill="#F3705A"/>
</svg>
