<svg width="16" height="16" viewBox="0 0 16 16" fill="none" xmlns="http://www.w3.org/2000/svg">
<path opacity="0.5" fill-rule="evenodd" clip-rule="evenodd" d="M4.33333 6C3.59333 6 3 6.59333 3 7.33333C3 8.07333 3.59333 8.66667 4.33333 8.66667C5.07333 8.66667 5.66667 8.07333 5.66667 7.33333C5.66667 6.59333 5.07333 6 4.33333 6ZM6.33153 11.4551C6.33236 11.4577 6.33333 11.4607 6.33333 11.3334C6.33333 10.1934 5.38667 9.28004 4.22667 9.33337C3.14667 9.39337 3 10.36 3 11.44V13.3334H6.33333V12C6.32921 11.4479 6.33019 11.451 6.33153 11.4551Z" fill="#69738F"/>
<path opacity="0.5" fill-rule="evenodd" clip-rule="evenodd" d="M12.3337 6C13.0737 6 13.667 6.59333 13.667 7.33333C13.667 8.07333 13.0737 8.66667 12.3337 8.66667C11.5937 8.66667 11.0003 8.07333 11.0003 7.33333C11.0003 6.59333 11.5937 6 12.3337 6ZM10.3355 11.4551C10.3346 11.4577 10.3337 11.4607 10.3337 11.3334C10.3337 10.1934 11.2803 9.28004 12.4403 9.33337C13.5203 9.39337 13.667 10.36 13.667 11.44V13.3334H10.3337V12C10.3378 11.4479 10.3368 11.451 10.3355 11.4551Z" fill="#69738F"/>
<path opacity="0.5" fill-rule="evenodd" clip-rule="evenodd" d="M9.5 0.6V2.7C9.5 3.03 9.23 3.3 8.9 3.3H6.2L5 4.5V0.6C5 0.27 5.27 0 5.6 0H8.9C9.23 0 9.5 0.27 9.5 0.6ZM10.4 1.20019H10.7C11.03 1.20019 11.3 1.47019 11.3 1.80019V6.00019L10.1 4.80019H7.1C6.77 4.80019 6.5 4.53019 6.5 4.20019V3.90019H10.1C10.265 3.90019 10.4 3.76519 10.4 3.60019V1.20019Z" fill="#69738F"/>
</svg>
