<svg width="30" height="24" viewBox="0 0 30 24" fill="none" xmlns="http://www.w3.org/2000/svg">
<path opacity="0.5" d="M21 15.8754L17.12 11.9954L21 8.11541C21.39 7.7254 21.39 7.09541 21 6.70541C20.61 6.3154 19.98 6.3154 19.59 6.70541L15 11.2954C14.61 11.6854 14.61 12.3154 15 12.7054L19.59 17.2954C19.7768 17.4827 20.0305 17.5879 20.295 17.5879C20.5595 17.5879 20.8131 17.4827 21 17.2954C21.38 16.9054 21.39 16.2654 21 15.8754Z" fill="#69738F"/>
<path opacity="0.5" d="M15 15.8754L11.12 11.9954L15 8.11541C15.39 7.7254 15.39 7.09541 15 6.70541C14.61 6.3154 13.98 6.3154 13.59 6.70541L8.99998 11.2954C8.60998 11.6854 8.60998 12.3154 8.99998 12.7054L13.59 17.2954C13.7768 17.4827 14.0305 17.5879 14.295 17.5879C14.5595 17.5879 14.8131 17.4827 15 17.2954C15.38 16.9054 15.39 16.2654 15 15.8754Z" fill="#69738F"/>
</svg>
