<svg width="24" height="24" viewBox="0 0 24 24" fill="none" xmlns="http://www.w3.org/2000/svg">
<rect opacity="0.5" x="4" y="4" width="16" height="16" rx="1.5" fill="#69738F"/>
<path d="M15.5 14.4038C15.0567 14.4038 14.66 14.5788 14.3567 14.8529L10.1975 12.4321C10.2267 12.2979 10.25 12.1638 10.25 12.0238C10.25 11.8838 10.2267 11.7496 10.1975 11.6154L14.31 9.21793C14.625 9.5096 15.0392 9.69043 15.5 9.69043C16.4683 9.69043 17.25 8.90876 17.25 7.94043C17.25 6.9721 16.4683 6.19043 15.5 6.19043C14.5317 6.19043 13.75 6.9721 13.75 7.94043C13.75 8.08043 13.7733 8.2146 13.8025 8.34876L9.69 10.7463C9.375 10.4546 8.96083 10.2738 8.5 10.2738C7.53167 10.2738 6.75 11.0554 6.75 12.0238C6.75 12.9921 7.53167 13.7738 8.5 13.7738C8.96083 13.7738 9.375 13.5929 9.69 13.3013L13.8433 15.7279C13.8142 15.8504 13.7967 15.9788 13.7967 16.1071C13.7967 17.0463 14.5608 17.8104 15.5 17.8104C16.4392 17.8104 17.2033 17.0463 17.2033 16.1071C17.2033 15.1679 16.4392 14.4038 15.5 14.4038Z" fill="white"/>
</svg>
