<svg width="24" height="24" viewBox="0 0 24 24" fill="none" xmlns="http://www.w3.org/2000/svg">
<path d="M18.5527 4H5.44733C4.648 4 4 4.648 4 5.44733V18.5526C4 19.352 4.648 20 5.44733 20H18.5526C19.352 20 20 19.352 20 18.5526V5.44733C20 4.648 19.352 4 18.5527 4ZM8.95108 17.8155C8.95108 18.0481 8.76251 18.2366 8.52988 18.2366H6.73696C6.50433 18.2366 6.31577 18.0481 6.31577 17.8155V10.2996C6.31577 10.067 6.50433 9.87841 6.73696 9.87841H8.52988C8.76251 9.87841 8.95108 10.067 8.95108 10.2996V17.8155ZM7.63342 9.16993C6.69273 9.16993 5.93014 8.40733 5.93014 7.46664C5.93014 6.52595 6.69273 5.76335 7.63342 5.76335C8.57412 5.76335 9.33671 6.52595 9.33671 7.46664C9.33671 8.40733 8.57416 9.16993 7.63342 9.16993ZM18.3208 17.8494C18.3208 18.0632 18.1474 18.2366 17.9336 18.2366H16.0096C15.7958 18.2366 15.6224 18.0632 15.6224 17.8494V14.324C15.6224 13.7981 15.7766 12.0195 14.248 12.0195C13.0623 12.0195 12.8218 13.2369 12.7735 13.7832V17.8494C12.7735 18.0632 12.6001 18.2366 12.3862 18.2366H10.5254C10.3116 18.2366 10.1382 18.0632 10.1382 17.8494V10.2657C10.1382 10.0518 10.3116 9.87841 10.5254 9.87841H12.3862C12.6001 9.87841 12.7735 10.0518 12.7735 10.2657V10.9214C13.2132 10.2616 13.8666 9.75229 15.2578 9.75229C18.3385 9.75229 18.3208 12.6305 18.3208 14.2119V17.8494Z" fill="#0077B7"/>
</svg>
