<svg width="24" height="24" viewBox="0 0 24 24" fill="none" xmlns="http://www.w3.org/2000/svg">
	<path opacity="0.5" fill-rule="evenodd" clip-rule="evenodd" d="M8.2925 14.8912L6.4125 13.0112L15.0825 13.0112C15.6325 13.0112 16.0825 12.5612 16.0825 12.0112C16.0825 11.4612 15.6325 11.0112 15.0825 11.0112L6.4125 11.0112L8.2925 9.12125C8.6825 8.73125 8.6825 8.10125 8.2925 7.71125C8.10567 7.524 7.85202 7.41876 7.5875 7.41876C7.32298 7.41876 7.06933 7.524 6.8825 7.71125L3.2925 11.3012C2.9025 11.6912 2.9025 12.3212 3.2925 12.7112L6.8825 16.3012C7.2725 16.6912 7.9025 16.6912 8.2925 16.3012C8.6825 15.9112 8.6825 15.2812 8.2925 14.8912ZM17.9997 5L12.9997 5C12.4497 5 11.9997 4.55 11.9997 4C11.9997 3.45 12.4497 3 12.9997 3L18.9997 3C20.0997 3 20.9997 3.9 20.9997 5L20.9997 19C20.9997 20.1 20.0997 21 18.9997 21L12.9997 21C12.4497 21 11.9997 20.55 11.9997 20C11.9997 19.45 12.4497 19 12.9997 19L17.9997 19C18.5497 19 18.9997 18.55 18.9997 18L18.9997 6C18.9997 5.45 18.5497 5 17.9997 5Z" fill="#69738F"/>
</svg>
