<svg width="16" height="16" viewBox="0 0 16 16" fill="none" xmlns="http://www.w3.org/2000/svg">
<path opacity="0.5" fill-rule="evenodd" clip-rule="evenodd" d="M13.3333 2.6665H2.66659C1.93325 2.6665 1.33992 3.2665 1.33992 3.99984L1.33325 11.9998C1.33325 12.7332 1.93325 13.3332 2.66659 13.3332H13.3333C14.0666 13.3332 14.6666 12.7332 14.6666 11.9998V3.99984C14.6666 3.2665 14.0666 2.6665 13.3333 2.6665ZM13.3333 11.3332C13.3333 11.6998 13.0333 11.9998 12.6666 11.9998H3.33325C2.96659 11.9998 2.66659 11.6998 2.66659 11.3332V5.33317L7.29325 8.2265C7.72658 8.49984 8.27325 8.49984 8.70659 8.2265L13.3333 5.33317V11.3332ZM2.66659 3.99984L7.99992 7.33317L13.3333 3.99984H2.66659Z" fill="#69738F"/>
</svg>
