<svg width="14" height="16" viewBox="0 0 14 16" fill="none" xmlns="http://www.w3.org/2000/svg">
<path d="M12.0909 11.4371L9.39115 10.1635C9.13652 10.0432 8.97826 9.8016 8.97826 9.5328V8.6312C9.04298 8.55653 9.11109 8.47147 9.18146 8.3776C9.53161 7.91093 9.81224 7.39147 10.0163 6.8312C10.415 6.65867 10.6739 6.28667 10.6739 5.86667V4.8C10.6739 4.5432 10.5722 4.2944 10.3913 4.1V2.6816C10.4071 2.53493 10.4693 1.66187 9.80009 0.9416C9.21961 0.3168 8.27767 0 7 0C5.72233 0 4.78039 0.3168 4.19991 0.941333C3.5307 1.6616 3.59287 2.53493 3.6087 2.6816V4.1C3.42783 4.2944 3.32609 4.5432 3.32609 4.8V5.86667C3.32609 6.1912 3.48237 6.49387 3.74915 6.69573C4.00802 7.66293 4.54978 8.39173 4.73913 8.6256V9.508C4.73913 9.76613 4.58991 10.0029 4.34998 10.1267L1.82883 11.4243C1.00898 11.8464 0.5 12.6555 0.5 13.5365V14.4C0.5 15.6656 4.75185 16 7 16C9.24815 16 13.5 15.6656 13.5 14.4V13.5885C13.5 12.6717 12.9599 11.8472 12.0909 11.4371Z" fill="#69738F"/>
</svg>
