<svg width="16" height="16" viewBox="0 0 16 16" fill="none" xmlns="http://www.w3.org/2000/svg">
<path opacity="0.5" fill-rule="evenodd" clip-rule="evenodd" d="M2.66675 2.66683C2.66675 1.92683 3.26008 1.3335 4.00008 1.3335C4.74008 1.3335 5.33341 1.92683 5.33341 2.66683C5.33341 3.40683 4.74008 4.00016 4.00008 4.00016C3.26008 4.00016 2.66675 3.40683 2.66675 2.66683ZM5.9976 6.96729C5.99659 6.78338 5.99734 6.78572 5.99828 6.78862C5.99911 6.79119 6.00008 6.79421 6.00008 6.66686C6.00008 5.52686 5.05341 4.61352 3.89341 4.66686C2.81341 4.72686 2.66675 5.69352 2.66675 6.77352V10.6669V11.3335H3.33341V13.6669C3.33341 14.2202 3.78008 14.6669 4.33341 14.6669C4.88675 14.6669 5.33341 14.2202 5.33341 13.6669V11.3335H6.00008V10.6669V8.66683L6.24248 8.90923C6.4768 9.14355 6.8567 9.14355 7.09101 8.90923C7.32533 8.67492 7.32533 8.29502 7.09101 8.0607L5.9976 6.96729Z" fill="#69738F"/>
<path opacity="0.5" fill-rule="evenodd" clip-rule="evenodd" d="M13.3333 2.66683C13.3333 1.92683 12.7399 1.3335 11.9999 1.3335C11.2599 1.3335 10.6666 1.92683 10.6666 2.66683C10.6666 3.40683 11.2599 4.00016 11.9999 4.00016C12.7399 4.00016 13.3333 3.40683 13.3333 2.66683ZM9.99992 8.14117V10.6669V11.3335H10.6666V13.6669C10.6666 14.2202 11.1133 14.6669 11.6666 14.6669C12.2199 14.6669 12.6666 14.2202 12.6666 13.6669V11.3335H13.3333V10.6669V6.77352C13.3333 5.69352 13.1866 4.72686 12.1066 4.66686C11.0918 4.6202 10.2403 5.31328 10.043 6.25072L9.5089 6.93514L8.24207 8.20196C8.00776 8.43628 8.00776 8.81618 8.24207 9.05049C8.47639 9.2848 8.85629 9.28481 9.0906 9.05049L9.99992 8.14117Z" fill="#69738F"/>
</svg>
