<svg width="16" height="16" viewBox="0 0 16 16" fill="none" xmlns="http://www.w3.org/2000/svg">
<path opacity="0.5" d="M12.8147 10.1789L11.1213 9.98554C10.7147 9.93887 10.3147 10.0789 10.028 10.3655L8.80132 11.5922C6.91466 10.6322 5.36799 9.09221 4.40799 7.19887L5.64132 5.96554C5.92799 5.67887 6.06799 5.27887 6.02132 4.87221L5.82799 3.19221C5.74799 2.51887 5.18132 2.01221 4.50132 2.01221H3.34799C2.59466 2.01221 1.96799 2.63887 2.01466 3.39221C2.36799 9.08554 6.92132 13.6322 12.608 13.9855C13.3613 14.0322 13.988 13.4055 13.988 12.6522V11.4989C13.9947 10.8255 13.488 10.2589 12.8147 10.1789Z" fill="#69738F"/>
</svg>
