<svg width="24" height="24" viewBox="0 0 24 24" fill="none" xmlns="http://www.w3.org/2000/svg">
<rect x="4" y="4" width="16" height="16" rx="3" fill="#FF7373"/>
<path d="M16.2 7.80676C16.0754 7.68192 15.9063 7.61177 15.73 7.61177C15.5536 7.61177 15.3845 7.68192 15.26 7.80676L12 11.0601L8.73998 7.80009C8.61543 7.67526 8.44633 7.6051 8.26998 7.6051C8.09364 7.6051 7.92453 7.67526 7.79998 7.80009C7.53998 8.06009 7.53998 8.48009 7.79998 8.74009L11.06 12.0001L7.79998 15.2601C7.53998 15.5201 7.53998 15.9401 7.79998 16.2001C8.05998 16.4601 8.47998 16.4601 8.73998 16.2001L12 12.9401L15.26 16.2001C15.52 16.4601 15.94 16.4601 16.2 16.2001C16.46 15.9401 16.46 15.5201 16.2 15.2601L12.94 12.0001L16.2 8.74009C16.4533 8.48676 16.4533 8.06009 16.2 7.80676Z" fill="white"/>
</svg>
