<svg width="30" height="24" viewBox="0 0 30 24" fill="none" xmlns="http://www.w3.org/2000/svg">
<path opacity="0.5" d="M9.00002 15.8754L12.88 11.9954L9.00002 8.11541C8.61002 7.7254 8.61002 7.09541 9.00002 6.70541C9.39002 6.3154 10.02 6.3154 10.41 6.70541L15 11.2954C15.39 11.6854 15.39 12.3154 15 12.7054L10.41 17.2954C10.2232 17.4827 9.96954 17.5879 9.70502 17.5879C9.4405 17.5879 9.18685 17.4827 9.00002 17.2954C8.62002 16.9054 8.61002 16.2654 9.00002 15.8754Z" fill="#69738F"/>
<path opacity="0.5" d="M15 15.8754L18.88 11.9954L15 8.11541C14.61 7.7254 14.61 7.09541 15 6.70541C15.39 6.3154 16.02 6.3154 16.41 6.70541L21 11.2954C21.39 11.6854 21.39 12.3154 21 12.7054L16.41 17.2954C16.2232 17.4827 15.9695 17.5879 15.705 17.5879C15.4405 17.5879 15.1869 17.4827 15 17.2954C14.62 16.9054 14.61 16.2654 15 15.8754Z" fill="#69738F"/>
</svg>
