<svg width="24" height="24" viewBox="0 0 24 24" fill="none" xmlns="http://www.w3.org/2000/svg">
<path opacity="0.5" d="M18.7362 13.0995C18.7362 12.824 18.828 12.5486 18.828 12.1814C18.828 11.8141 18.828 11.5387 18.7362 11.2632L20.6643 9.70239C20.8479 9.51876 20.8479 9.33513 20.7561 9.15151L18.9198 5.93803C18.828 5.84622 18.6444 5.75441 18.3689 5.84622L16.0736 6.76435C15.6145 6.3971 15.0636 6.12166 14.5127 5.84622L14.1455 3.45907C14.2373 3.18363 13.9618 3 13.7782 3H10.1057C9.92203 3 9.64663 3.18363 9.64663 3.36725L9.27937 5.84622C8.72849 6.02985 8.26943 6.3971 7.71854 6.76435L5.51502 5.84622C5.23958 5.75441 5.05595 5.84622 4.87229 6.02985L3.03602 9.24332C2.94421 9.33513 3.03602 9.61057 3.21965 9.7942L5.14773 11.2632C5.14773 11.5387 5.05592 11.8141 5.05592 12.1814C5.05592 12.5486 5.05592 12.824 5.14773 13.0995L3.21965 14.6603C3.03602 14.844 3.03602 15.0276 3.12783 15.2112L4.9641 18.4247C5.05592 18.5165 5.23951 18.6083 5.51498 18.5165L7.81032 17.5984C8.26939 17.9656 8.82027 18.2411 9.37115 18.5165L9.73841 20.9037C9.73841 21.0873 9.92203 21.2709 10.1975 21.2709H13.87C14.0537 21.2709 14.3291 21.0873 14.3291 20.9037L14.6963 18.5165C15.2472 18.2411 15.7981 17.9656 16.2572 17.5984L18.5525 18.5165C18.7362 18.6083 19.0116 18.5165 19.1034 18.3329L20.9397 15.1194C21.0315 14.9358 21.0315 14.6603 20.8478 14.5685L18.7362 13.0995ZM11.942 15.3948C10.1975 15.3948 8.72849 13.9258 8.72849 12.1814C8.72849 10.4369 10.1975 8.96788 11.942 8.96788C13.6864 8.96788 15.1554 10.4369 15.1554 12.1814C15.1554 13.9258 13.6864 15.3948 11.942 15.3948Z" fill="#69738F"/>
</svg>
