<svg width="24" height="24" viewBox="0 0 24 24" fill="none" xmlns="http://www.w3.org/2000/svg">
<path d="M19.539 13.6985C19.654 13.1771 19.715 12.6382 19.715 12.0837C19.715 7.92889 16.2995 4.5599 12.0851 4.5599C11.6407 4.5599 11.2048 4.5979 10.7808 4.6699C10.099 4.24596 9.29211 4 8.42726 4C5.98265 4 4.00195 5.95368 4.00195 8.3643C4.00195 9.16918 4.22441 9.92304 4.60985 10.5715C4.50837 11.0599 4.45538 11.5658 4.45538 12.0837C4.45538 16.2401 7.87087 19.4836 12.0847 19.4836C12.5621 19.4836 13.0291 19.4401 13.4815 19.3576C14.1049 19.6875 14.8168 20 15.5737 20C18.0178 20 19.9985 18.0468 19.9985 15.6362C19.9985 14.9408 19.833 14.2824 19.539 13.6985Z" fill="#00AFF0"/>
<path d="M15.5649 15.1547C15.2704 15.5732 14.8395 15.9021 14.2721 16.1386C13.7047 16.377 13.0328 16.495 12.2554 16.495C11.3231 16.495 10.5542 16.333 9.94778 16.0086C9.51885 15.7757 9.16943 15.4637 8.90046 15.0747C8.63248 14.6858 8.49805 14.3069 8.49805 13.9384C8.49805 13.7254 8.57855 13.5425 8.7395 13.391C8.90046 13.2375 9.10595 13.162 9.35443 13.162C9.55641 13.162 9.72785 13.2205 9.86684 13.34C10.0068 13.4585 10.1263 13.6339 10.2243 13.8674C10.3448 14.1449 10.4742 14.3763 10.6147 14.5618C10.7537 14.7472 10.9507 14.9012 11.2036 15.0217C11.4576 15.1412 11.791 15.2021 12.2029 15.2021C12.7699 15.2021 13.2308 15.0812 13.5857 14.8377C13.9397 14.5952 14.1176 14.2908 14.1176 13.9273C14.1176 13.6393 14.0216 13.4039 13.8306 13.2254C13.6392 13.0454 13.3922 12.9079 13.0893 12.8135C12.7868 12.718 12.3818 12.617 11.8739 12.5105C11.1955 12.365 10.6271 12.1931 10.1702 11.9981C9.7128 11.8016 9.34889 11.5352 9.08091 11.1977C8.81194 10.8588 8.67795 10.4389 8.67795 9.93746C8.67795 9.45855 8.8194 9.03412 9.10337 8.66268C9.38683 8.29075 9.79627 8.0053 10.3342 7.80531C10.8711 7.60536 11.503 7.50586 12.2284 7.50586C12.8083 7.50586 13.3102 7.57236 13.7336 7.70382C14.1571 7.83683 14.5075 8.01277 14.7864 8.23226C15.0659 8.45176 15.2703 8.68168 15.3988 8.92314C15.5278 9.16311 15.5923 9.40007 15.5923 9.62802C15.5923 9.83746 15.5123 10.0275 15.3513 10.1949C15.1904 10.3629 14.9894 10.4474 14.7489 10.4474C14.5294 10.4474 14.363 10.3964 14.249 10.2959C14.135 10.1949 14.0115 10.03 13.879 9.8005C13.7065 9.47255 13.5011 9.2166 13.2601 9.03313C13.0192 8.84917 12.6332 8.75719 12.1003 8.75719C11.6069 8.75719 11.2079 8.8562 10.905 9.05663C10.602 9.25559 10.4501 9.49655 10.4501 9.777C10.4501 9.94998 10.5026 10.1009 10.605 10.2274C10.7075 10.3549 10.8495 10.4624 11.031 10.5529C11.2104 10.6439 11.3934 10.7149 11.5779 10.7673C11.7623 10.8188 12.0678 10.8933 12.4937 10.9923C13.0256 11.1068 13.508 11.2338 13.94 11.3718C14.3714 11.5103 14.7394 11.6787 15.0423 11.8752C15.3448 12.0731 15.5817 12.3241 15.7512 12.627C15.9207 12.929 16.0062 13.2994 16.0062 13.7384C16.0063 14.2634 15.8584 14.7358 15.5649 15.1547Z" fill="white"/>
</svg>
