<svg width="16" height="16" viewBox="0 0 16 16" fill="none" xmlns="http://www.w3.org/2000/svg">
<path opacity="0.5" d="M12 10.7465C11.4933 10.7465 11.04 10.9465 10.6933 11.2599L5.94 8.4932C5.97333 8.33986 6 8.18653 6 8.02653C6 7.86653 5.97333 7.7132 5.94 7.55986L10.64 4.81986C11 5.1532 11.4733 5.35986 12 5.35986C13.1067 5.35986 14 4.46653 14 3.35986C14 2.2532 13.1067 1.35986 12 1.35986C10.8933 1.35986 10 2.2532 10 3.35986C10 3.51986 10.0267 3.6732 10.06 3.82653L5.36 6.56653C5 6.2332 4.52667 6.02653 4 6.02653C2.89333 6.02653 2 6.91986 2 8.02653C2 9.1332 2.89333 10.0265 4 10.0265C4.52667 10.0265 5 9.81986 5.36 9.48653L10.1067 12.2599C10.0733 12.3999 10.0533 12.5465 10.0533 12.6932C10.0533 13.7665 10.9267 14.6399 12 14.6399C13.0733 14.6399 13.9467 13.7665 13.9467 12.6932C13.9467 11.6199 13.0733 10.7465 12 10.7465Z" fill="#69738F"/>
</svg>
