<svg width="16" height="16" viewBox="0 0 16 16" fill="none" xmlns="http://www.w3.org/2000/svg">
<path opacity="0.5" d="M8.31079 5.33334C6.54412 5.33334 4.94412 5.99334 3.71079 7.06668L2.45079 5.80668C2.03079 5.38668 1.31079 5.68001 1.31079 6.27334V10C1.31079 10.3667 1.61079 10.6667 1.97746 10.6667H5.70412C6.29746 10.6667 6.59746 9.94668 6.17746 9.52668L4.90412 8.25334C5.83079 7.48001 7.01079 7.00001 8.31746 7.00001C10.4241 7.00001 12.2441 8.22668 13.1108 10C13.2908 10.3733 13.7175 10.56 14.1108 10.4267C14.5841 10.2733 14.8241 9.73334 14.6108 9.28001C13.4641 6.94668 11.0775 5.33334 8.31079 5.33334Z" fill="#69738F"/>
</svg>
