<svg width="24" height="24" viewBox="0 0 24 24" fill="none" xmlns="http://www.w3.org/2000/svg">
<g id="icon/file/upload_24px">
<path id="icon/file/upload_24px_2" opacity="1" fill-rule="evenodd" clip-rule="evenodd" d="M14 16.2961H10C9.45 16.2961 9 15.8461 9 15.2961V10.2961H7.41C6.52 10.2961 6.08 9.2161 6.71 8.5861L11.3 3.9961C11.4868 3.80885 11.7405 3.70361 12.005 3.70361C12.2695 3.70361 12.5232 3.80885 12.71 3.9961L17.3 8.5861C17.93 9.2161 17.48 10.2961 16.59 10.2961H15V15.2961C15 15.8461 14.55 16.2961 14 16.2961ZM18 18.2961H6C5.45 18.2961 5 18.7461 5 19.2961C5 19.8461 5.45 20.2961 6 20.2961H18C18.55 20.2961 19 19.8461 19 19.2961C19 18.7461 18.55 18.2961 18 18.2961Z" fill="#69738F"/>
</g>
</svg>
