<svg width="24" height="24" viewBox="0 0 24 24" fill="none" xmlns="http://www.w3.org/2000/svg">
<rect x="4" y="4" width="16" height="16" rx="1.5" fill="#F05654"/>
<path d="M14.6366 12.0238C14.6307 12.0089 14.6227 11.9951 14.6154 11.9804C14.533 12.023 14.4553 12.0667 14.3743 12.1038C14.2957 12.1401 14.2149 12.1725 14.133 12.2011C14.0497 12.2301 13.9639 12.2522 13.8798 12.277C13.8805 12.2847 13.88 12.2894 13.8813 12.2938C13.8848 12.305 13.8885 12.3162 13.8929 12.327C14.0103 12.6233 14.0622 12.9322 14.066 13.2495C14.0692 13.514 14.0349 13.7744 13.9573 14.0278C13.8405 14.4089 13.6521 14.7502 13.3744 15.0373C12.9687 15.4564 12.4697 15.682 11.8907 15.7346C11.8372 15.7395 11.7833 15.7389 11.7251 15.7409C11.7277 15.7278 11.7273 15.7249 11.7286 15.724C11.7586 15.7014 11.7889 15.6793 11.8188 15.6566C12.4241 15.197 12.9007 14.6303 13.2376 13.9487C13.5177 13.3821 13.66 12.7811 13.6742 12.1494C13.681 11.8407 13.654 11.5345 13.6006 11.2309C13.54 10.8855 13.4448 10.5492 13.3223 10.2207C13.3185 10.2105 13.3069 10.1858 13.2988 10.1712C13.2915 10.1168 13.2891 10.1004 13.2874 10.0903C13.2874 10.0809 13.2869 10.0638 13.2865 10.0603C13.2563 9.77493 13.2046 9.49379 13.1262 9.21778C13.0196 8.84296 12.8685 8.4879 12.6568 8.15997C12.511 7.93401 12.3427 7.72679 12.1376 7.55118C12.1183 7.53477 12.0979 7.5193 12.0737 7.5C12.0729 7.51277 12.07 7.52041 12.0727 7.52526C12.0871 7.55211 12.1029 7.57821 12.1181 7.60468C12.4746 8.21841 12.7876 8.85368 13.0551 9.51113C13.1285 9.69141 13.1955 9.8743 13.2656 10.056L13.2863 10.094C13.2881 10.1047 13.2906 10.1235 13.2976 10.1748C13.3013 10.2707 13.3066 10.3691 13.3083 10.4541C13.3185 10.9524 13.3053 11.4498 13.2545 11.946C13.2311 12.1751 13.2019 12.4033 13.1631 12.6299C13.1145 12.9148 13.0522 13.1967 12.9709 13.4741C12.8709 13.8152 12.7453 14.146 12.5757 14.4591C12.4247 14.7375 12.2436 14.9936 12.0154 15.2145C11.8056 15.4178 11.5672 15.5777 11.2972 15.6899C11.2684 15.702 11.2411 15.7054 11.209 15.6992C10.8403 15.6272 10.5085 15.4754 10.2133 15.2435C9.95815 15.0433 9.76034 14.795 9.60598 14.511C9.44127 14.2078 9.34264 13.8841 9.30853 13.5413C9.28849 13.3396 9.29287 13.1381 9.31701 12.9365C9.34665 12.6899 9.40911 12.4527 9.51006 12.2258C9.66042 11.8877 9.88041 11.6008 10.1549 11.3546C10.3668 11.1646 10.6036 11.0148 10.8705 10.9138C11.0426 10.8488 11.2202 10.8077 11.403 10.786C11.5647 10.767 11.7268 10.7662 11.8885 10.7789C12.0952 10.7951 12.2968 10.8398 12.4907 10.9152C12.5075 10.9218 12.5252 10.926 12.5499 10.9336C12.567 10.7984 12.5936 10.6703 12.6334 10.5452C12.6734 10.4201 12.7272 10.3004 12.7829 10.1814C12.7525 10.1574 12.7194 10.1521 12.6887 10.1422C12.4259 10.0577 12.1562 10.0116 11.8804 9.99604C11.5856 9.97926 11.2937 9.99912 11.0044 10.0566C10.6578 10.1255 10.3343 10.2533 10.0346 10.4409C9.74935 10.6195 9.50298 10.8423 9.28532 11.098C8.80246 11.6653 8.5449 12.3222 8.50519 13.0649C8.49382 13.2785 8.501 13.492 8.52803 13.7048C8.56606 14.0051 8.64203 14.2945 8.76219 14.5722C8.95636 15.0209 9.23964 15.4064 9.59862 15.7365C9.86428 15.9808 10.1669 16.1672 10.504 16.2959C10.8182 16.4161 11.1449 16.4786 11.4797 16.4951C11.7904 16.5102 12.0992 16.4928 12.4048 16.4285C12.8175 16.3418 13.195 16.177 13.5343 15.9258C13.799 15.7297 14.0235 15.4941 14.2195 15.2307C14.6089 14.7075 14.8197 14.1188 14.8567 13.4683C14.8718 13.2025 14.8593 12.9377 14.8156 12.6746C14.778 12.4513 14.7208 12.2338 14.6366 12.0238Z" fill="white"/>
<path d="M16.1556 8.50739C16.0874 8.25459 15.9916 8.01306 15.8604 7.78618C15.8416 7.75392 15.8209 7.72279 15.7969 7.68457C15.7789 7.71738 15.764 7.7433 15.7501 7.76968C15.6594 7.94119 15.5462 8.09621 15.4066 8.23119C15.1948 8.43561 14.9506 8.58373 14.6627 8.6543C14.6377 8.66045 14.6127 8.66725 14.5879 8.67452C14.3756 8.7367 14.1704 8.81584 13.9783 8.92723C13.8466 9.00367 13.7337 9.10052 13.6404 9.22133C13.4671 9.44589 13.3833 9.69925 13.3957 9.98262C13.406 10.2141 13.4722 10.4304 13.584 10.633C13.5895 10.6429 13.5975 10.6514 13.6087 10.6665C14.5195 10.4432 15.2037 9.92222 15.6766 9.0981C15.6749 9.12588 15.6757 9.1393 15.6729 9.15198C15.6572 9.22338 15.6321 9.29152 15.5999 9.35714C15.5289 9.50172 15.4334 9.62924 15.3267 9.74893C15.1418 9.9568 14.9315 10.1371 14.7107 10.3053C14.4432 10.5091 14.1629 10.6937 13.8722 10.8623C13.8508 10.8747 13.8254 10.8827 13.8093 10.9097C13.8487 10.9451 13.8861 10.9805 13.9255 11.0136C14.0744 11.1384 14.2368 11.2395 14.4224 11.3008C14.5974 11.3584 14.7754 11.3742 14.9574 11.3424C15.1783 11.304 15.3706 11.2063 15.5393 11.0606C15.703 10.9194 15.8319 10.7496 15.9404 10.564C16.0034 10.4566 16.0619 10.3465 16.1024 10.2283C16.1867 9.98262 16.236 9.72936 16.2519 9.47059C16.272 9.14471 16.2406 8.82311 16.1556 8.50739Z" fill="white"/>
</svg>
