<svg width="24" height="24" viewBox="0 0 24 24" fill="none" xmlns="http://www.w3.org/2000/svg">
<rect x="4" y="4" width="16" height="16" rx="3" fill="#FFA726"/>
<path fill-rule="evenodd" clip-rule="evenodd" d="M9.77761 6.44434C9.1665 6.44434 8.6665 6.94434 8.6665 7.55545V9.31656C8.6665 9.611 8.78317 9.89434 8.99428 10.1054L10.8887 11.9999L8.98873 13.8999C8.78317 14.111 8.6665 14.3943 8.6665 14.6888V16.4443C8.6665 17.0554 9.1665 17.5554 9.77761 17.5554H14.2221C14.8332 17.5554 15.3332 17.0554 15.3332 16.4443V14.6888C15.3332 14.3943 15.2165 14.111 15.0109 13.9054L13.1109 11.9999L15.0054 10.111C15.2165 9.89989 15.3332 9.61656 15.3332 9.32211V7.55545C15.3332 6.94434 14.8332 6.44434 14.2221 6.44434H9.77761ZM14.2223 14.4999V15.8888C14.2223 16.1943 13.9723 16.4443 13.6667 16.4443H10.3334C10.0278 16.4443 9.77783 16.1943 9.77783 15.8888V14.4999L12.0001 12.2777L14.2223 14.4999ZM9.77783 9.49978L12.0001 11.722L14.2223 9.49978V8.11089C14.2223 7.80534 13.9723 7.55534 13.6667 7.55534H10.3334C10.0278 7.55534 9.77783 7.80534 9.77783 8.11089V9.49978Z" fill="white"/>
</svg>
