<svg width="24" height="24" viewBox="0 0 24 24" fill="none" xmlns="http://www.w3.org/2000/svg">
<rect x="4" y="4" width="16" height="16" rx="1.5" fill="#005D5E"/>
<path d="M10.032 8.6918C9.90627 8.47405 9.74664 8.36523 9.55323 8.36523H7.81926C7.70804 8.36523 7.63069 8.40155 7.58711 8.47402C7.53397 8.54657 7.53636 8.63612 7.59442 8.74252L8.76248 10.7667C8.76726 10.7716 8.76726 10.774 8.76248 10.774L6.92689 14.0242C6.87854 14.1164 6.87854 14.2034 6.92689 14.2856C6.97538 14.3679 7.05024 14.409 7.15186 14.409H8.8858C9.06958 14.409 9.22677 14.2977 9.35731 14.0752C10.552 11.9569 11.1736 10.854 11.2219 10.767L10.032 8.6918Z" fill="white"/>
<path d="M17.0695 6.37728C17.1228 6.27574 17.1228 6.18627 17.0695 6.10889C17.0259 6.03644 16.9511 6.0001 16.8447 6H15.0962C14.9075 6 14.7528 6.10879 14.6318 6.32646C12.1505 10.7279 10.8664 13.006 10.7793 13.1608L13.2388 17.6735C13.3548 17.8911 13.5145 18 13.7176 18H15.4517C15.5581 18 15.6353 17.9637 15.6838 17.8912C15.7322 17.8089 15.7298 17.7195 15.6765 17.6226L13.2388 13.1608V13.1536L17.0695 6.37728Z" fill="white"/>
</svg>
